<?xml version="1.0" standalone="no"?>
<!DOCTYPE svg PUBLIC "-//W3C//DTD SVG 20010904//EN"
 "http://www.w3.org/TR/2001/REC-SVG-20010904/DTD/svg10.dtd">
<svg version="1.0" xmlns="http://www.w3.org/2000/svg"
 width="66.000000pt" height="75.000000pt" viewBox="0 0 66.000000 75.000000"
 preserveAspectRatio="xMidYMid meet">
<metadata>
Created by potrace 1.16, written by Peter Selinger 2001-2019
</metadata>
<g transform="translate(0.000000,75.000000) scale(0.100000,-0.100000)"
fill="#000000" stroke="none">
<path d="M67 715 c-51 -35 -71 -76 -62 -131 8 -53 37 -91 78 -102 l32 -8 -3
-215 c-3 -172 -6 -216 -18 -225 -39 -30 -14 -34 236 -34 138 0 250 2 250 4 0
2 -7 17 -15 32 -12 23 -15 71 -15 231 l0 203 34 14 c86 36 97 139 24 222 l-30
34 -237 0 -236 0 -38 -25z m519 -58 c45 -53 21 -137 -40 -137 -50 0 -77 68
-37 90 22 11 51 -9 51 -36 0 -18 14 -18 30 1 10 12 9 20 -4 40 -33 51 -85 56
-128 13 -46 -46 -210 -43 -268 5 -35 30 -48 32 -83 16 -31 -14 -48 -49 -35
-72 13 -24 23 -21 36 8 14 30 47 33 62 5 13 -24 -1 -56 -29 -65 -27 -8 -67 10
-87 41 -17 25 -17 28 2 62 32 60 44 63 287 60 l219 -3 24 -28z m-122 -146 l36
-35 0 -223 0 -223 -45 0 -45 0 0 199 c0 110 -3 207 -6 216 -17 42 -24 -23 -24
-212 l0 -203 -44 0 -44 0 -4 205 c-2 144 -7 208 -15 216 -7 7 -16 9 -20 5 -5
-4 -9 -102 -11 -217 l-3 -209 -45 0 -45 0 3 218 3 219 30 35 c36 44 47 47 157
45 85 -2 88 -3 122 -36z"/>
</g>
</svg>
